<?xml version="1.0" encoding="UTF-8" standalone="no"?>
<svg
   width="3.4133301in"
   height="3.4133301in"
   viewBox="0 0 1024 1024"
   version="1.1"
   id="svg1"
   xmlns="http://www.w3.org/2000/svg"
   xmlns:svg="http://www.w3.org/2000/svg">
  <defs
     id="defs1" />
  <path
     id="Selection #1"
     fill="none"
     stroke="#c8d8e3"
     stroke-width="1"
     d="m 507,233.46 c 13.44,-1.85 26.32,3.28 34.2,14.54 11.22,16.02 6.98,40.12 -10.2,50.12 -4.46,2.6 -8.88,4.45 -14,5.09 -3.78,0.75 -5.32,0.25 -9,0 -22.85,-2.72 -36.73,-26.87 -28.53,-48.21 4.88,-12.7 14.77,-18.7 27.53,-21.54 z M 498,436 c 5.6,-12.99 22.67,-38.81 30.95,-52 0,0 49.37,-80 49.37,-80 0,0 15.88,-27 15.88,-27 6.9,-11.42 6.03,-12.98 15.8,-13 0,0 41,0 41,0 0,0 -20.69,40 -20.69,40 0,0 -24.01,46 -24.01,46 0,0 -36.52,70 -36.52,70 0,0 -16.78,32 -16.78,32 0,0 -11,-7.45 -11,-7.45 -6.2,-3.99 -19.63,-9.6 -27,-10.38 -6.45,-0.68 -10.8,1.31 -17,1.83 z M 373,264 c 0,0 42,0 42,0 0,0 8.53,1.17 8.53,1.17 0,0 5.27,7.83 5.27,7.83 0,0 11.19,19 11.19,19 0,0 29.82,50 29.82,50 0,0 18.47,30 18.47,30 0,0 11.57,20 11.57,20 0,0 4.12,10 4.12,10 0,0 -7.97,15 -7.97,15 0,0 -21,35 -21,35 -5.14,-4.23 -7.92,-11.23 -11.14,-17 0,0 -19.64,-37 -19.64,-37 0,0 -46.08,-86 -46.08,-86 0,0 -16.45,-30 -16.45,-30 -3.09,-5.7 -7.19,-11.69 -8.69,-18 z M 239,493 c 0,0 12.58,-23 12.58,-23 1.35,-2.41 3.62,-7.6 5.81,-8.98 3.1,-1.96 9.13,0 12.61,0.76 0,0 21,0 21,0 25.44,0.18 52.39,-13.73 65.55,-35.78 16.45,-27.58 12.13,-59.84 -7.05,-85 -4.79,-6.28 -9.91,-11.47 -15.5,-17 -1.69,-1.67 -7.06,-6.34 -7.77,-8.17 -1.12,-2.93 2.18,-8.15 3.52,-10.83 0,0 9.47,-18 9.47,-18 2.47,-4.67 2.87,-7.4 7.78,-10 0,0 40.45,68 40.45,68 0,0 40.83,68 40.83,68 0,0 20.66,35 20.66,35 0,0 9.04,17 9.04,17 0,0 -2.31,9 -2.31,9 0,0 -4.67,17.04 -4.67,17.04 0,0 -14,0 -14,0 0,0 -12,1.18 -12,1.18 0,0 -84,0 -84,0 0,0 -40,0.78 -40,0.78 0,0 -46,0 -46,0 z M 678,277 c 5.4,4.76 11.89,19.98 15.31,27 1.29,2.65 4.44,7.13 3.87,10 -0.61,3.07 -5.9,7.65 -8.14,10 -4.13,4.32 -11.84,13.22 -15.3,18 -18.25,25.25 -22.9,53.94 -7.96,82 12.87,24.16 42.56,37.96 69.22,38 0,0 23,-1.07 23,-1.07 2.95,-0.41 6.95,-1.56 9.62,0 2.51,1.65 5.23,7.38 6.63,10.07 0,0 11.75,23 11.75,23 0,0 -56,-1 -56,-1 0,0 -18,-1 -18,-1 0,0 -88,0 -88,0 0,0 -15,-1 -15,-1 0,0 -29,0 -29,0 -1.87,-0.01 -4.75,0.17 -6.3,-0.99 -1.58,-1.19 -2.41,-4.19 -3.03,-6.01 0,0 -5.2,-16 -5.2,-16 -0.14,-4.09 6.03,-12.28 8.34,-16 0,0 21.79,-36 21.79,-36 0,0 73.39,-123 73.39,-123 z m -382,75.46 c 6.74,-0.93 10.52,-0.61 17,1.43 34.6,10.87 32.47,61.74 -1,71.9 -3.37,1.03 -8.51,2.16 -12,1.89 -16.83,-1.34 -31.8,-12.43 -34.84,-29.68 0,0 0,-10 0,-10 -0.06,-7.94 2.42,-15.69 7.37,-21.99 6.18,-7.86 13.96,-11.43 23.47,-13.55 z m 420,0 c 6.62,-0.91 12.66,-0.65 19,1.63 31.47,11.33 30.92,56.27 2,70.12 -6.65,3.19 -9.88,2.87 -17,2.79 -15.57,-0.19 -30.22,-12.73 -33.48,-28 -0.69,-3.22 -0.54,-7.63 -0.52,-11 0.09,-18.14 12.61,-31.66 30,-35.54 z m -211,98 c 14.08,-1.94 28.89,2.21 38.91,12.58 19.27,19.94 15.59,54.49 -7.91,69.52 -8.44,5.4 -14.29,6.31 -24,6.93 -4.88,0.31 -12.49,-1.46 -17,-3.36 -22.17,-9.37 -31.41,-36.08 -23.45,-58.13 5.24,-14.55 18.77,-24.27 33.45,-27.54 z M 239,511 c 0,0 76,0.93 76,0.93 0,0 15,0 15,0 0,0 118,0 118,0 2.27,0.07 5.66,-0.15 7.61,1.09 1.92,1.23 3.12,4.01 4.15,5.98 2.08,4.04 7.35,11.68 6.72,16 -0.54,3.72 -11.77,21.76 -14.43,26 0,0 -32.5,54 -32.5,54 0,0 -34.55,57 -34.55,57 0,0 -21.95,36 -21.95,36 -3.1,4.96 -7.19,13.15 -11.05,17 0,0 -19.33,-28 -19.33,-28 -1.6,-2.37 -6.02,-8.14 -5.66,-10.91 0.29,-2.17 2.41,-3.69 4.01,-4.94 0,0 11.98,-9.73 11.98,-9.73 11.41,-9.85 19.77,-19.85 26.4,-33.42 9.66,-19.78 9.19,-48.25 -4.79,-66 -11.36,-14.43 -31.82,-24.45 -49.44,-28.96 -7.97,-1.79 -9.84,-0.63 -17.17,0 0,0 -11,0 -11,0 0,0 -30,2.96 -30,2.96 -4.58,-8.66 -16.42,-26.59 -18,-35 z m 430,213 c 0,0 -94.8,-160 -94.8,-160 0,0 -11.8,-20 -11.8,-20 -1.61,-2.69 -4.98,-7.99 -5.26,-11 -0.34,-3.65 7.93,-18.13 11.07,-19.98 2.09,-1.23 5.41,-1.02 7.79,-1.14 0,0 91,0 91,0 0,0 51,0 51,0 0,0 9,-0.88 9,-0.88 0,0 38,0 38,0 6.5,0 15.98,-0.71 22,1 0,0 -14.14,25 -14.14,25 -1.41,2.54 -3.24,7.31 -6.07,8.31 -1.85,0.66 -14.98,-0.87 -17.79,-1.14 0,0 -33,-1.17 -33,-1.17 -8.93,0.01 -10.7,1.18 -19,4 -24.9,8.49 -45.36,28.37 -45.99,56 -0.47,20.92 11.56,43.77 25.16,59 4.86,5.44 10.36,10.35 15.84,15.13 1.72,1.5 6.07,4.88 6.66,6.96 0.81,2.87 -3.87,8.48 -5.5,10.91 -4.79,7.12 -17.17,25.61 -24.17,29 z M 485,546 c 0,0 15,4.49 15,4.49 8.34,1.88 12.72,1.6 21,0.51 -1.82,7.46 -13.5,24.52 -18,32 0,0 -33.45,56 -33.45,56 -4.55,7.59 -15.98,25 -18.55,32 0,0 24,-8 24,-8 -3.72,6.95 -17.07,21.45 -22.85,28 0,0 -43.15,47 -43.15,47 -6.25,6.25 -22.99,23.68 -30,27 0,0 23.69,-54 23.69,-54 0,0 52.58,-108 52.58,-108 0,0 17.04,-33 17.04,-33 z m 53,0 c 4.54,4.06 9.32,15.17 12.25,21 0,0 20.53,39 20.53,39 0,0 20.96,39 20.96,39 0,0 20.57,40 20.57,40 0,0 28.69,56 28.69,56 -13.35,-2.39 -25.57,-1.98 -39,-2 -2.24,0 -5.56,0.24 -7.47,-0.99 -1.91,-1.23 -4.54,-5.94 -5.85,-8.01 0,0 -12.26,-20 -12.26,-20 0,0 -49.08,-78 -49.08,-78 0,0 -13.66,-22 -13.66,-22 -1.75,-2.78 -5.24,-7.74 -5.24,-11 0,-4.03 6.05,-12.31 8.25,-16 z m -238,25.44 c 34.33,-4.4 56.49,34.9 34.19,61.52 -3.33,3.98 -7.54,7.33 -12.19,9.66 -7.02,3.54 -11.43,3.47 -19,3.38 -26.59,-0.32 -42.27,-29.55 -32.21,-53 5.29,-12.33 16.47,-19.18 29.21,-21.56 z m 412,-0.2 c 2.93,-0.18 5.04,-0.29 8,0 5,-0.11 10.45,0.97 15,3.08 36.79,17.07 22.75,74.29 -18,72.64 -30.11,-1.22 -46.01,-35.53 -29.4,-59.96 6.25,-9.19 13.86,-13.2 24.4,-15.76 z M 510,685.43 c 5.45,-0.55 10.78,0.6 16,2.16 40.06,11.95 39.54,68.4 1,82.53 -3.73,1.37 -12.1,2.87 -16,2.56 -10.39,-0.83 -21.26,-4.61 -28.91,-11.86 -16.79,-15.93 -17.55,-44.84 -1.91,-61.78 8.58,-9.29 17.94,-11.84 29.82,-13.61 z"
     style="fill:#c8d8e3;fill-opacity:1" />
</svg>
